# xmcd CD database file
#
# Track frame offsets:
#	150
#	10575
#	27561
#	42830
#	55903
#	81350
#	93460
#	102952
#	117227
#	129695
#	147657
#	163966
#	179040
#
# Disc length: 2587 seconds
#
# Revision: 1
# Processed by: cddbd v1.5.2PL0 Copyright (c) Steve Scherf et al.
# Submitted via: CDex 1.51
#
DISCID=bb0a190d
DTITLE=Backstabbers - Deep, Dark and Dangerous
DYEAR=2004
DGENRE=Country
TTITLE0=Deep, Dark and Dangerous
TTITLE1=Queen Street Lost
TTITLE2=Undevoted Attention
TTITLE3=The Hurt Wont Kill Me Overnight
TTITLE4=Drunken Hiccups - My Wife Died Saturday Night
TTITLE5=You Look Tired
TTITLE6=If I Were You Instead of Me
TTITLE7=Going Across the Sea
TTITLE8=Lets Fly South
TTITLE9=You Showed Me
TTITLE10=Wish I Was a Single Girl Again
TTITLE11=This Crazy War
TTITLE12=I'm Gonna Lay My Armour Down
EXTD=YEAR: 2004
EXTT0=
EXTT1=
EXTT2=
EXTT3=
EXTT4=
EXTT5=
EXTT6=
EXTT7=
EXTT8=
EXTT9=
EXTT10=
EXTT11=
EXTT12=
PLAYORDER=
